<?xml version="1.0" encoding="utf-8"?>
<!-- Generator: Adobe Illustrator 23.1.0, SVG Export Plug-In . SVG Version: 6.00 Build 0)  -->
<svg version="1.1" id="Layer_1" xmlns="http://www.w3.org/2000/svg" xmlns:xlink="http://www.w3.org/1999/xlink" x="0px" y="0px"
	 viewBox="0 0 1024 1024" style="enable-background:new 0 0 1024 1024;" xml:space="preserve">
<style type="text/css">
	.st0{fill:#FFFFFF;}
	.st1{fill:#E83353;}
	.st2{fill:#75FBEB;}
	.st3{fill:none;}
</style>
<polygon class="st0" points="1024,0 0,0 0,1024 1024,1024 1024,1024 "/>
<g>
	<g>
		<path d="M462.05,548.14c0.92,2.04,2.38,3.73,4.16,4.96v-5.8C464.84,547.84,463.43,548.12,462.05,548.14z"/>
		<g>
			<path d="M605.09,437.99c3.87,2.49,5.72,6.62,5.57,10.69l10.95,7.03c0.12,0.08,0.23,0.17,0.35,0.26c0.18-4.11-1.66-8.3-5.57-10.8
				l-69.72-44.75l-66.93-42.96c-0.29-0.18-0.58-0.32-0.88-0.48l56.5,36.26L605.09,437.99z"/>
			<path class="st1" d="M621.96,455.97c-0.17,3.74-2.01,7.41-5.57,9.7l-69.72,44.75l-66.93,42.96c-4.48,2.88-9.73,2.37-13.54-0.27
				v0.57c0,9.63,10.65,15.45,18.76,10.25l66.93-42.96l69.72-44.75C628.96,471.5,629.06,460.88,621.96,455.97z"/>
			<path d="M479.74,553.37l66.93-42.96l69.72-44.75c3.56-2.28,5.4-5.96,5.57-9.7c-0.12-0.08-0.22-0.18-0.35-0.26l-10.95-7.03
				c-0.14,3.78-1.98,7.5-5.57,9.81l-69.72,44.75l-66.93,42.96c-0.72,0.47-1.47,0.81-2.23,1.11v5.8
				C470.01,555.75,475.26,556.25,479.74,553.37z"/>
			<path d="M479.74,553.37l66.93-42.96l69.72-44.75c3.56-2.28,5.4-5.96,5.57-9.7c-0.12-0.08-0.22-0.18-0.35-0.26l-10.95-7.03
				c-0.14,3.78-1.98,7.5-5.57,9.81l-69.72,44.75l-66.93,42.96c-0.72,0.47-1.47,0.81-2.23,1.11v5.8
				C470.01,555.75,475.26,556.25,479.74,553.37z"/>
			<path class="st2" d="M460.99,455.41v-87.71c0-9.29,9.91-15.01,17.88-10.73l-10.43-6.7c-8.11-5.2-18.76,0.62-18.76,10.25v87.71
				v87.71c0,7.21,5.97,12.28,12.37,12.2c-0.68-1.5-1.06-3.19-1.06-5.02V455.41z"/>
			<path d="M466.2,547.3v-81.34v-87.71c0-9.63,10.65-15.45,18.76-10.25l66.93,42.96l58.77,37.72c0.15-4.07-1.7-8.21-5.57-10.69
				l-69.72-44.75l-56.5-36.26c-7.98-4.28-17.88,1.44-17.88,10.73v87.71v87.71c0,1.83,0.39,3.52,1.06,5.02
				C463.43,548.12,464.84,547.84,466.2,547.3z"/>
			<path d="M466.2,547.3v-81.34v-87.71c0-9.63,10.65-15.45,18.76-10.25l66.93,42.96l58.77,37.72c0.15-4.07-1.7-8.21-5.57-10.69
				l-69.72-44.75l-56.5-36.26c-7.98-4.28-17.88,1.44-17.88,10.73v87.71v87.71c0,1.83,0.39,3.52,1.06,5.02
				C463.43,548.12,464.84,547.84,466.2,547.3z"/>
			<path d="M484.96,368c-8.11-5.2-18.76,0.62-18.76,10.25v87.71v81.34c0.76-0.29,1.5-0.64,2.23-1.11l66.93-42.96l69.72-44.75
				c3.59-2.31,5.44-6.03,5.57-9.81l-58.77-37.72L484.96,368z"/>
			<path d="M484.96,368c-8.11-5.2-18.76,0.62-18.76,10.25v87.71v81.34c0.76-0.29,1.5-0.64,2.23-1.11l66.93-42.96l69.72-44.75
				c3.59-2.31,5.44-6.03,5.57-9.81l-58.77-37.72L484.96,368z"/>
			<path d="M484.96,368c-8.11-5.2-18.76,0.62-18.76,10.25v87.71v81.34c0.76-0.29,1.5-0.64,2.23-1.11l66.93-42.96l69.72-44.75
				c3.59-2.31,5.44-6.03,5.57-9.81l-58.77-37.72L484.96,368z"/>
		</g>
	</g>
	<path class="st3" d="M622.15,565.05L622.15,565.05c62-62,63.4-161.62,4.25-225.36c-63.77-58.37-162.81-56.71-224.54,5.02l0,0
		c-62,62-63.4,161.62-4.25,225.36C461.37,628.45,560.41,626.78,622.15,565.05z"/>
	<path class="st1" d="M401.85,344.71L401.85,344.71c61.74-61.74,160.77-63.4,224.54-5.02c-1.39-1.5-2.79-3.01-4.25-4.47l0,0
		c-63.46-63.47-166.36-63.47-229.83,0l0,0c-63.46,63.46-63.46,166.36,0,229.83l0,0c1.73,1.73,3.5,3.39,5.29,5.02
		C338.46,506.34,339.85,406.72,401.85,344.71z"/>
	<path class="st1" d="M711.78,264.61L711.78,264.61c-1.77-1.77-3.56-3.51-5.37-5.22c103.51,108,102.12,279.46-4.17,385.76l-195,195
		l9.51,9.51l195.02-195.02C819.49,546.94,819.49,372.32,711.78,264.61z"/>
	<path class="st2" d="M321.75,264.61L321.75,264.61c105.93-105.93,276.6-107.67,384.66-5.22c-1.37-1.43-2.76-2.86-4.17-4.27l0,0
		c-107.7-107.7-282.33-107.7-390.03,0l0,0c-107.7,107.7-107.7,282.33,0,390.03l195.02,195.02l0.02-0.02l-185.5-185.5
		C214.05,546.94,214.05,372.32,321.75,264.61z"/>
	<path d="M631.68,344.71c-1.73-1.73-3.5-3.39-5.28-5.02c59.15,63.74,57.75,163.35-4.25,225.36l0,0
		c-61.74,61.74-160.77,63.4-224.54,5.02c1.39,1.5,2.79,3.01,4.25,4.47l0,0c63.47,63.46,166.36,63.46,229.83,0l0,0
		C695.15,511.08,695.15,408.18,631.68,344.71L631.68,344.71z"/>
	<path d="M706.42,259.39c-108.06-102.45-278.73-100.71-384.66,5.22l0,0c-107.7,107.7-107.7,282.33,0,390.03l185.5,185.5l195-195
		C808.54,538.86,809.92,367.39,706.42,259.39z M631.68,574.54L631.68,574.54c-63.47,63.47-166.36,63.47-229.83,0l0,0
		c-1.46-1.46-2.85-2.97-4.25-4.47c-1.79-1.63-3.56-3.3-5.29-5.02l0,0c-63.46-63.47-63.46-166.36,0-229.83l0,0
		c63.47-63.47,166.36-63.47,229.83,0l0,0c1.46,1.46,2.86,2.97,4.25,4.47c1.79,1.63,3.56,3.29,5.28,5.02l0,0
		C695.15,408.18,695.15,511.08,631.68,574.54z"/>
</g>
</svg>
