<?xml version="1.0" encoding="utf-8"?>
<!-- Generator: Adobe Illustrator 23.1.0, SVG Export Plug-In . SVG Version: 6.00 Build 0)  -->
<svg version="1.1" id="Layer_1" xmlns="http://www.w3.org/2000/svg" xmlns:xlink="http://www.w3.org/1999/xlink" x="0px" y="0px"
	 viewBox="0 0 512 512" style="enable-background:new 0 0 512 512;" xml:space="preserve">
<style type="text/css">
	.st0{fill:#FFFFFF;}
	.st1{fill:#E83353;}
	.st2{fill:#75FBEB;}
	.st3{fill:none;}
</style>
<rect y="0" class="st0" width="512" height="512"/>
<g>
	<g>
		<path d="M233.54,272.25c0.41,0.92,1.07,1.68,1.87,2.23v-2.61C234.79,272.11,234.16,272.24,233.54,272.25z"/>
		<g>
			<path d="M297.86,222.72c1.74,1.12,2.57,2.98,2.51,4.81l4.93,3.16c0.06,0.04,0.1,0.08,0.16,0.12c0.08-1.85-0.75-3.73-2.5-4.86
				l-31.35-20.12l-30.1-19.32c-0.13-0.08-0.26-0.15-0.39-0.22l25.41,16.31L297.86,222.72z"/>
			<path class="st1" d="M305.45,230.8c-0.08,1.68-0.9,3.33-2.5,4.36l-31.35,20.12l-30.1,19.32c-2.01,1.29-4.38,1.07-6.09-0.12v0.26
				c0,4.33,4.79,6.95,8.44,4.61l30.1-19.32l31.35-20.12C308.59,237.79,308.64,233.01,305.45,230.8z"/>
			<path d="M241.5,274.6l30.1-19.32l31.35-20.12c1.6-1.03,2.43-2.68,2.5-4.36c-0.05-0.04-0.1-0.08-0.16-0.12l-4.93-3.16
				c-0.06,1.7-0.89,3.37-2.51,4.41l-31.35,20.12l-30.1,19.32c-0.33,0.21-0.66,0.37-1,0.5v2.61
				C237.12,275.67,239.48,275.9,241.5,274.6z"/>
			<path d="M241.5,274.6l30.1-19.32l31.35-20.12c1.6-1.03,2.43-2.68,2.5-4.36c-0.05-0.04-0.1-0.08-0.16-0.12l-4.93-3.16
				c-0.06,1.7-0.89,3.37-2.51,4.41l-31.35,20.12l-30.1,19.32c-0.33,0.21-0.66,0.37-1,0.5v2.61
				C237.12,275.67,239.48,275.9,241.5,274.6z"/>
			<path class="st2" d="M233.06,230.56v-39.44c0-4.18,4.45-6.75,8.04-4.83l-4.69-3.01c-3.65-2.34-8.44,0.28-8.44,4.61v39.44v39.44
				c0,3.24,2.68,5.52,5.56,5.48c-0.3-0.68-0.48-1.44-0.48-2.26V230.56z"/>
			<path d="M235.41,271.88V235.3v-39.44c0-4.33,4.79-6.95,8.44-4.61l30.1,19.32l26.43,16.96c0.07-1.83-0.76-3.69-2.51-4.81
				l-31.35-20.12l-25.41-16.31c-3.59-1.92-8.04,0.65-8.04,4.83v39.44V270c0,0.82,0.17,1.58,0.48,2.26
				C234.16,272.24,234.79,272.11,235.41,271.88z"/>
			<path d="M235.41,271.88V235.3v-39.44c0-4.33,4.79-6.95,8.44-4.61l30.1,19.32l26.43,16.96c0.07-1.83-0.76-3.69-2.51-4.81
				l-31.35-20.12l-25.41-16.31c-3.59-1.92-8.04,0.65-8.04,4.83v39.44V270c0,0.82,0.17,1.58,0.48,2.26
				C234.16,272.24,234.79,272.11,235.41,271.88z"/>
			<path d="M243.84,191.25c-3.65-2.34-8.44,0.28-8.44,4.61v39.44v36.58c0.34-0.13,0.68-0.29,1-0.5l30.1-19.32l31.35-20.12
				c1.62-1.04,2.45-2.71,2.51-4.41l-26.43-16.96L243.84,191.25z"/>
			<path d="M243.84,191.25c-3.65-2.34-8.44,0.28-8.44,4.61v39.44v36.58c0.34-0.13,0.68-0.29,1-0.5l30.1-19.32l31.35-20.12
				c1.62-1.04,2.45-2.71,2.51-4.41l-26.43-16.96L243.84,191.25z"/>
			<path d="M243.84,191.25c-3.65-2.34-8.44,0.28-8.44,4.61v39.44v36.58c0.34-0.13,0.68-0.29,1-0.5l30.1-19.32l31.35-20.12
				c1.62-1.04,2.45-2.71,2.51-4.41l-26.43-16.96L243.84,191.25z"/>
		</g>
	</g>
	<path class="st3" d="M305.53,279.85L305.53,279.85c27.88-27.88,28.51-72.68,1.91-101.34c-28.68-26.25-73.21-25.5-100.97,2.26l0,0
		c-27.88,27.88-28.51,72.68-1.91,101.34C233.23,308.36,277.77,307.62,305.53,279.85z"/>
	<path class="st1" d="M206.47,180.78L206.47,180.78c27.76-27.76,72.3-28.51,100.97-2.26c-0.63-0.68-1.25-1.35-1.91-2.01l0,0
		c-28.54-28.54-74.81-28.54-103.35,0l0,0c-28.54,28.54-28.54,74.81,0,103.35l0,0c0.78,0.78,1.57,1.52,2.38,2.26
		C177.96,253.45,178.59,208.66,206.47,180.78z"/>
	<path class="st1" d="M345.84,144.76L345.84,144.76c-0.8-0.8-1.6-1.58-2.41-2.35c46.54,48.56,45.92,125.67-1.87,173.46l-87.68,87.68
		l4.28,4.28l87.69-87.69C394.27,271.71,394.27,193.19,345.84,144.76z"/>
	<path class="st2" d="M170.45,144.76L170.45,144.76c47.64-47.64,124.38-48.42,172.97-2.35c-0.62-0.64-1.24-1.29-1.87-1.92l0,0
		c-48.43-48.43-126.95-48.43-175.39,0l0,0c-48.43,48.43-48.43,126.95,0,175.39l87.69,87.69l0.01-0.01l-83.41-83.41
		C122.02,271.71,122.02,193.19,170.45,144.76z"/>
	<path d="M309.82,180.78c-0.78-0.78-1.57-1.52-2.38-2.26c26.6,28.66,25.97,73.46-1.91,101.34l0,0
		c-27.76,27.76-72.3,28.51-100.97,2.26c0.63,0.68,1.25,1.35,1.91,2.01l0,0c28.54,28.54,74.81,28.54,103.35,0l0,0
		C338.36,255.58,338.36,209.31,309.82,180.78L309.82,180.78z"/>
	<path d="M343.42,142.41c-48.59-46.07-125.34-45.29-172.97,2.35l0,0c-48.43,48.43-48.43,126.95,0,175.39l83.41,83.41l87.68-87.68
		C389.35,268.08,389.97,190.97,343.42,142.41z M309.82,284.12L309.82,284.12c-28.54,28.54-74.81,28.54-103.35,0l0,0
		c-0.66-0.66-1.28-1.33-1.91-2.01c-0.8-0.74-1.6-1.48-2.38-2.26l0,0c-28.54-28.54-28.54-74.81,0-103.35l0,0
		c28.54-28.54,74.81-28.54,103.35,0l0,0c0.66,0.66,1.28,1.33,1.91,2.01c0.8,0.73,1.6,1.48,2.38,2.26l0,0
		C338.36,209.31,338.36,255.58,309.82,284.12z"/>
</g>
</svg>
