<?xml version="1.0" encoding="utf-8"?>
<!-- Generator: Adobe Illustrator 23.1.0, SVG Export Plug-In . SVG Version: 6.00 Build 0)  -->
<svg version="1.1" id="Layer_1" xmlns="http://www.w3.org/2000/svg" xmlns:xlink="http://www.w3.org/1999/xlink" x="0px" y="0px"
	 viewBox="0 0 750 1334" style="enable-background:new 0 0 750 1334;" xml:space="preserve">
<style type="text/css">
	.st0{fill:#FFFFFF;}
	.st1{fill:none;}
	.st2{fill:#E83353;}
	.st3{fill:#75FBEB;}
</style>
<rect class="st0" width="750" height="1334"/>
<rect class="st1" width="750" height="1334"/>
<rect class="st1" width="750" height="1334"/>
<g>
	<g>
		<path d="M347.06,687.22c0.51,1.14,1.33,2.09,2.32,2.78v-3.24C348.62,687.04,347.84,687.2,347.06,687.22z"/>
		<g>
			<path d="M427.06,625.6c2.17,1.39,3.2,3.7,3.12,5.98l6.13,3.93c0.07,0.04,0.13,0.1,0.19,0.14c0.1-2.3-0.93-4.64-3.11-6.04
				l-39-25.03l-37.44-24.03c-0.16-0.1-0.33-0.18-0.49-0.27l31.6,20.28L427.06,625.6z"/>
			<path class="st2" d="M436.5,635.66c-0.09,2.09-1.12,4.15-3.11,5.42l-39,25.03l-37.44,24.03c-2.51,1.61-5.44,1.33-7.57-0.15v0.32
				c0,5.39,5.96,8.64,10.49,5.73l37.44-24.03l39-25.03C440.42,644.35,440.48,638.41,436.5,635.66z"/>
			<path d="M356.96,690.14l37.44-24.03l39-25.03c1.99-1.28,3.02-3.33,3.11-5.42c-0.07-0.05-0.13-0.1-0.19-0.14l-6.13-3.93
				c-0.08,2.11-1.11,4.19-3.12,5.48l-39,25.03l-37.44,24.03c-0.41,0.26-0.82,0.45-1.25,0.62v3.24
				C351.52,691.47,354.45,691.75,356.96,690.14z"/>
			<path d="M356.96,690.14l37.44-24.03l39-25.03c1.99-1.28,3.02-3.33,3.11-5.42c-0.07-0.05-0.13-0.1-0.19-0.14l-6.13-3.93
				c-0.08,2.11-1.11,4.19-3.12,5.48l-39,25.03l-37.44,24.03c-0.41,0.26-0.82,0.45-1.25,0.62v3.24
				C351.52,691.47,354.45,691.75,356.96,690.14z"/>
			<path class="st3" d="M346.47,635.35v-49.06c0-5.2,5.54-8.39,10-6l-5.84-3.75c-4.53-2.91-10.49,0.35-10.49,5.73v49.06v49.06
				c0,4.03,3.34,6.87,6.92,6.82c-0.38-0.84-0.59-1.79-0.59-2.81V635.35z"/>
			<path d="M349.39,686.75v-45.49v-49.06c0-5.39,5.96-8.64,10.49-5.73l37.44,24.03l32.87,21.1c0.08-2.28-0.95-4.59-3.12-5.98
				l-39-25.03l-31.6-20.28c-4.46-2.39-10,0.8-10,6v49.06v49.06c0,1.02,0.22,1.97,0.59,2.81
				C347.84,687.2,348.62,687.04,349.39,686.75z"/>
			<path d="M349.39,686.75v-45.49v-49.06c0-5.39,5.96-8.64,10.49-5.73l37.44,24.03l32.87,21.1c0.08-2.28-0.95-4.59-3.12-5.98
				l-39-25.03l-31.6-20.28c-4.46-2.39-10,0.8-10,6v49.06v49.06c0,1.02,0.22,1.97,0.59,2.81
				C347.84,687.2,348.62,687.04,349.39,686.75z"/>
			<path d="M359.88,586.46c-4.53-2.91-10.49,0.35-10.49,5.73v49.06v45.49c0.42-0.16,0.84-0.36,1.25-0.62l37.44-24.03l39-25.03
				c2.01-1.29,3.04-3.37,3.12-5.48l-32.87-21.1L359.88,586.46z"/>
			<path d="M359.88,586.46c-4.53-2.91-10.49,0.35-10.49,5.73v49.06v45.49c0.42-0.16,0.84-0.36,1.25-0.62l37.44-24.03l39-25.03
				c2.01-1.29,3.04-3.37,3.12-5.48l-32.87-21.1L359.88,586.46z"/>
			<path d="M359.88,586.46c-4.53-2.91-10.49,0.35-10.49,5.73v49.06v45.49c0.42-0.16,0.84-0.36,1.25-0.62l37.44-24.03l39-25.03
				c2.01-1.29,3.04-3.37,3.12-5.48l-32.87-21.1L359.88,586.46z"/>
		</g>
	</g>
	<path class="st1" d="M436.61,696.67L436.61,696.67c34.68-34.68,35.46-90.4,2.38-126.04c-35.67-32.65-91.06-31.72-125.59,2.81l0,0
		c-34.68,34.68-35.46,90.4-2.38,126.04C346.68,732.13,402.08,731.2,436.61,696.67z"/>
	<path class="st2" d="M313.39,573.44L313.39,573.44c34.53-34.53,89.92-35.46,125.59-2.81c-0.78-0.84-1.56-1.68-2.38-2.5l0,0
		c-35.5-35.5-93.05-35.5-128.54,0l0,0c-35.5,35.5-35.5,93.05,0,128.54l0,0c0.97,0.97,1.96,1.9,2.96,2.81
		C277.94,663.83,278.71,608.11,313.39,573.44z"/>
	<path class="st2" d="M486.74,528.63L486.74,528.63c-0.99-0.99-1.99-1.96-3-2.92c57.89,60.41,57.12,156.31-2.33,215.76
		L372.34,850.53l5.32,5.32l109.07-109.07C546.98,686.54,546.98,588.87,486.74,528.63z"/>
	<path class="st3" d="M268.59,528.63L268.59,528.63c59.25-59.25,154.71-60.22,215.15-2.92c-0.77-0.8-1.54-1.6-2.33-2.39l0,0
		c-60.24-60.24-157.91-60.24-218.15,0l0,0c-60.24,60.24-60.24,157.91,0,218.15l109.07,109.07l0.01-0.01L268.59,746.78
		C208.35,686.54,208.35,588.87,268.59,528.63z"/>
	<path d="M441.94,573.44c-0.97-0.97-1.96-1.9-2.96-2.81c33.08,35.65,32.3,91.37-2.38,126.04l0,0
		c-34.53,34.53-89.92,35.46-125.59,2.81c0.78,0.84,1.56,1.68,2.38,2.5l0,0c35.5,35.5,93.05,35.5,128.54,0l0,0
		C477.44,666.48,477.44,608.93,441.94,573.44L441.94,573.44z"/>
	<path d="M483.74,525.72c-60.44-57.3-155.9-56.33-215.15,2.92l0,0c-60.24,60.24-60.24,157.91,0,218.15l103.75,103.75l109.06-109.06
		C540.86,682.02,541.63,586.12,483.74,525.72z M441.94,701.98L441.94,701.98c-35.5,35.5-93.05,35.5-128.54,0l0,0
		c-0.82-0.82-1.6-1.66-2.38-2.5c-1-0.91-1.99-1.84-2.96-2.81l0,0c-35.5-35.5-35.5-93.05,0-128.54l0,0c35.5-35.5,93.05-35.5,128.54,0
		l0,0c0.82,0.82,1.6,1.66,2.38,2.5c1,0.91,1.99,1.84,2.96,2.81l0,0C477.44,608.93,477.44,666.48,441.94,701.98z"/>
</g>
</svg>
